<?xml version="1.0" encoding="UTF-8"?>
<svg xmlns="http://www.w3.org/2000/svg" xmlns:xlink="http://www.w3.org/1999/xlink" width="224.87999pt" height="225pt" viewBox="0 0 224.87999 225" version="1.2">
<defs>
<clipPath id="clip1">
  <path d="M 112 0.0585938 L 224 0.0585938 L 224 104 L 112 104 Z M 112 0.0585938 "/>
</clipPath>
</defs>
<g id="surface1">
<path style=" stroke:none;fill-rule:nonzero;fill:rgb(100%,100%,100%);fill-opacity:1;" d="M 216.058594 123.96875 C 214.027344 150.648438 202.296875 174.566406 184.347656 192.261719 C 182.65625 193.925781 179.847656 193.679688 178.390625 191.8125 L 158.636719 166.511719 C 157.433594 164.964844 157.574219 162.820312 158.898438 161.375 C 168.285156 151.089844 174.496094 137.882812 176.125 123.28125 C 176.355469 121.246094 177.988281 119.675781 180.039062 119.675781 L 212.023438 119.675781 C 214.335938 119.675781 216.234375 121.664062 216.058594 123.96875 Z M 216.058594 123.96875 "/>
<path style=" stroke:none;fill-rule:nonzero;fill:rgb(100%,100%,100%);fill-opacity:1;" d="M 164.902344 207.59375 C 145.054688 219.742188 121.441406 225.449219 96.425781 222.507812 C 94.074219 222.230469 92.488281 219.890625 93.039062 217.585938 L 100.40625 186.320312 C 100.851562 184.414062 102.632812 183.195312 104.585938 183.3125 C 117.726562 184.152344 130.128906 181.199219 140.996094 175.300781 C 142.71875 174.367188 144.839844 174.742188 146.050781 176.289062 L 165.917969 201.726562 C 167.359375 203.59375 166.921875 206.359375 164.902344 207.59375 Z M 164.902344 207.59375 "/>
<path style=" stroke:none;fill-rule:nonzero;fill:rgb(100%,100%,100%);fill-opacity:1;" d="M 22.589844 172.371094 C 20.71875 173.824219 17.941406 173.367188 16.722656 171.34375 C 6.882812 155.097656 1.195312 136.066406 1.195312 115.691406 C 1.195312 61.863281 40.71875 17.300781 92.328125 9.34375 C 94.722656 8.976562 96.890625 10.90625 96.890625 13.335938 L 96.890625 45.832031 C 96.890625 47.699219 95.574219 49.246094 93.753906 49.660156 C 63.597656 56.527344 41.070312 83.457031 41.070312 115.691406 C 41.070312 127.238281 44.011719 138.066406 49.105469 147.570312 C 50.039062 149.300781 49.648438 151.429688 48.09375 152.628906 Z M 22.589844 172.371094 "/>
<path style=" stroke:none;fill-rule:nonzero;fill:rgb(100%,100%,100%);fill-opacity:1;" d="M 72.257812 216.949219 C 56.875 211.375 43.171875 202.355469 31.96875 190.875 C 30.3125 189.175781 30.566406 186.367188 32.441406 184.917969 L 57.847656 165.25 C 59.394531 164.054688 61.523438 164.214844 62.957031 165.53125 C 68.660156 170.769531 75.269531 175.019531 82.511719 178.074219 C 84.3125 178.832031 85.34375 180.714844 84.894531 182.613281 L 77.496094 214.039062 C 76.945312 216.359375 74.480469 217.753906 72.257812 216.949219 Z M 72.257812 216.949219 "/>
<g clip-path="url(#clip1)" clip-rule="nonzero">
<path style=" stroke:none;fill-rule:nonzero;fill:rgb(100%,100%,100%);fill-opacity:1;" d="M 117.097656 0.484375 C 171.59375 4.335938 215.675781 45.832031 223.300781 99.191406 C 223.644531 101.582031 221.714844 103.726562 219.304688 103.726562 L 178.714844 103.726562 C 176.851562 103.726562 175.292969 102.40625 174.878906 100.585938 C 168.554688 72.84375 145.238281 51.632812 116.441406 48.417969 C 114.410156 48.1875 112.839844 46.550781 112.839844 44.5 L 112.839844 4.519531 C 112.839844 2.214844 114.800781 0.324219 117.097656 0.484375 Z M 117.097656 0.484375 "/>
</g>
<path style=" stroke:none;fill-rule:nonzero;fill:rgb(100%,100%,100%);fill-opacity:1;" d="M 76.953125 135.625 L 68.980469 135.625 C 66.777344 135.625 64.992188 133.839844 64.992188 131.640625 L 64.992188 107.714844 C 64.992188 105.515625 66.777344 103.726562 68.980469 103.726562 L 76.953125 103.726562 C 79.15625 103.726562 80.941406 105.515625 80.941406 107.714844 L 80.941406 131.640625 C 80.941406 133.839844 79.15625 135.625 76.953125 135.625 Z M 76.953125 135.625 "/>
<path style=" stroke:none;fill-rule:nonzero;fill:rgb(100%,100%,100%);fill-opacity:1;" d="M 108.851562 135.625 L 100.878906 135.625 C 98.675781 135.625 96.890625 133.839844 96.890625 131.640625 L 96.890625 99.742188 C 96.890625 97.539062 98.675781 95.753906 100.878906 95.753906 L 108.851562 95.753906 C 111.050781 95.753906 112.839844 97.539062 112.839844 99.742188 L 112.839844 131.640625 C 112.839844 133.839844 111.050781 135.625 108.851562 135.625 Z M 108.851562 135.625 "/>
<path style=" stroke:none;fill-rule:nonzero;fill:rgb(100%,100%,100%);fill-opacity:1;" d="M 140.75 135.625 L 132.773438 135.625 C 130.574219 135.625 128.789062 133.839844 128.789062 131.640625 L 128.789062 91.765625 C 128.789062 89.566406 130.574219 87.777344 132.773438 87.777344 L 140.75 87.777344 C 142.949219 87.777344 144.738281 89.566406 144.738281 91.765625 L 144.738281 131.640625 C 144.738281 133.839844 142.949219 135.625 140.75 135.625 Z M 140.75 135.625 "/>
</g>
</svg>
